<svg width="75" height="75" viewBox="0 0 75 75" fill="none" xmlns="http://www.w3.org/2000/svg">
<g clip-path="url(#clip0)">
<path d="M37.5 0C42.572 0 47.4121 1.01318 51.8372 2.84424C56.4331 4.74854 60.5652 7.53174 64.0198 10.9863C67.4744 14.4409 70.2576 18.5669 72.1619 23.1689C73.9929 27.594 75.0061 32.4341 75.0061 37.5061C75.0061 42.5781 73.9929 47.4182 72.1619 51.8433C70.2576 56.4392 67.4744 60.5713 64.0198 64.0259C60.5652 67.4805 56.4392 70.2637 51.8372 72.168C47.4121 73.999 42.572 75.0122 37.5 75.0122C32.428 75.0122 27.5879 73.999 23.1628 72.168C18.5669 70.2637 14.4348 67.4805 10.9802 64.0259C7.53174 60.5652 4.74854 56.4331 2.84424 51.8372C1.01318 47.4121 0 42.572 0 37.5C0 32.428 1.01318 27.5879 2.84424 23.1628C4.74854 18.5669 7.53174 14.4348 10.9863 10.9863C14.4409 7.53174 18.5669 4.74854 23.1689 2.84424C27.5879 1.01318 32.428 0 37.5 0ZM29.9866 10.144L53.2898 61.0596C53.8574 60.675 54.4128 60.2783 54.95 59.8572C55.8411 59.1614 56.7139 58.3862 57.55 57.55C60.1685 54.9316 62.2803 51.8066 63.7085 48.3459C65.0879 45.0073 65.8508 41.3452 65.8508 37.4939C65.8508 33.6426 65.0879 29.9805 63.7085 26.6418C62.2742 23.1812 60.1685 20.0562 57.55 17.4377C54.9316 14.8193 51.8066 12.7075 48.3459 11.2793C45.0073 9.8999 41.3452 9.13696 37.4939 9.13696C35.9436 9.13696 34.436 9.25903 32.9895 9.49097C31.9824 9.65576 30.9753 9.87549 29.9866 10.144ZM45.0134 64.856L21.7102 13.9343C21.1426 14.3188 20.5872 14.7156 20.05 15.1367C19.1589 15.8325 18.2861 16.6077 17.45 17.4438C14.8315 20.0623 12.7197 23.1873 11.2915 26.6479C9.91211 29.9866 9.14917 33.6487 9.14917 37.5C9.14917 41.3513 9.91211 45.0134 11.2915 48.3521C12.7258 51.8127 14.8315 54.9377 17.45 57.5562C20.0684 60.1746 23.1934 62.2864 26.6541 63.7146C29.9927 65.094 33.6548 65.8569 37.5061 65.8569C39.0564 65.8569 40.564 65.7349 42.0105 65.5029C43.0176 65.3442 44.0247 65.1245 45.0134 64.856Z" fill="#C77DFF"/>
</g>
<defs>
<clipPath id="clip0">
<rect width="75" height="75" fill="white"/>
</clipPath>
</defs>
</svg>
