<svg width="250" height="250" viewBox="0 0 250 250" fill="none" xmlns="http://www.w3.org/2000/svg">
<path d="M21.7468 65.3867L125 5.7735L228.253 65.3867V184.613L125 244.227L21.7468 184.613V65.3867Z" fill="#7B2CBF" stroke="#5A189A" stroke-width="10"/>
<path d="M110.438 73.4375V104.688L135.438 115.625L160.438 104.688V73.4375" stroke="#C77DFF" stroke-width="2" stroke-miterlimit="10" stroke-linecap="round" stroke-linejoin="round"/>
<path d="M110.438 73.4375L135.438 84.375L160.438 73.4375" stroke="#C77DFF" stroke-width="2" stroke-miterlimit="10" stroke-linecap="round" stroke-linejoin="round"/>
<path d="M122.938 67.9688L147.938 79.0031V89.0625" stroke="#C77DFF" stroke-width="2" stroke-miterlimit="10" stroke-linecap="round" stroke-linejoin="round"/>
<path d="M110.438 73.4375L135.438 62.5L160.438 73.4375" stroke="#C77DFF" stroke-width="2" stroke-miterlimit="10" stroke-linecap="round" stroke-linejoin="round"/>
<path d="M91.6875 92.6625L91.8344 92.7313L104.188 98.4375" stroke="#C77DFF" stroke-width="2" stroke-miterlimit="10" stroke-linecap="round" stroke-linejoin="round"/>
<path d="M93.8936 82.7437L104.187 87.5" stroke="#C77DFF" stroke-width="2" stroke-miterlimit="10" stroke-linecap="round" stroke-linejoin="round"/>
<path d="M95.9531 72.7594L104.187 76.5625" stroke="#C77DFF" stroke-width="2" stroke-miterlimit="10" stroke-linecap="round" stroke-linejoin="round"/>
<path d="M135.438 84.375V115.625" stroke="#C77DFF" stroke-width="2" stroke-miterlimit="10" stroke-linecap="round" stroke-linejoin="round"/>
<path d="M97.793 153.031H89.8359V161H88.3945V143.938H98.9648V145.168H89.8359V151.801H97.793V153.031ZM103.137 161H101.73V148.32H103.137V161ZM101.484 144.652C101.484 144.387 101.57 144.164 101.742 143.984C101.914 143.797 102.148 143.703 102.445 143.703C102.742 143.703 102.977 143.797 103.148 143.984C103.328 144.164 103.418 144.387 103.418 144.652C103.418 144.918 103.328 145.141 103.148 145.32C102.977 145.5 102.742 145.59 102.445 145.59C102.148 145.59 101.914 145.5 101.742 145.32C101.57 145.141 101.484 144.918 101.484 144.652ZM109.137 145.074V148.32H111.762V149.469H109.137V157.918C109.137 158.621 109.262 159.145 109.512 159.488C109.77 159.832 110.195 160.004 110.789 160.004C111.023 160.004 111.402 159.965 111.926 159.887L111.984 161.035C111.617 161.168 111.117 161.234 110.484 161.234C109.523 161.234 108.824 160.957 108.387 160.402C107.949 159.84 107.73 159.016 107.73 157.93V149.469H105.398V148.32H107.73V145.074H109.137ZM116.004 148.32L116.051 150.488C116.527 149.707 117.121 149.113 117.832 148.707C118.543 148.293 119.328 148.086 120.188 148.086C121.547 148.086 122.559 148.469 123.223 149.234C123.887 150 124.223 151.148 124.23 152.68V161H122.836V152.668C122.828 151.535 122.586 150.691 122.109 150.137C121.641 149.582 120.887 149.305 119.848 149.305C118.98 149.305 118.211 149.578 117.539 150.125C116.875 150.664 116.383 151.395 116.062 152.316V161H114.668V148.32H116.004ZM132.773 161.234C131.695 161.234 130.719 160.969 129.844 160.438C128.977 159.906 128.301 159.168 127.816 158.223C127.332 157.27 127.09 156.203 127.09 155.023V154.52C127.09 153.301 127.324 152.203 127.793 151.227C128.27 150.25 128.93 149.484 129.773 148.93C130.617 148.367 131.531 148.086 132.516 148.086C134.055 148.086 135.273 148.613 136.172 149.668C137.078 150.715 137.531 152.148 137.531 153.969V154.754H128.484V155.023C128.484 156.461 128.895 157.66 129.715 158.621C130.543 159.574 131.582 160.051 132.832 160.051C133.582 160.051 134.242 159.914 134.812 159.641C135.391 159.367 135.914 158.93 136.383 158.328L137.262 158.996C136.23 160.488 134.734 161.234 132.773 161.234ZM132.516 149.281C131.461 149.281 130.57 149.668 129.844 150.441C129.125 151.215 128.688 152.254 128.531 153.559H136.137V153.406C136.098 152.188 135.75 151.195 135.094 150.43C134.438 149.664 133.578 149.281 132.516 149.281ZM147.855 157.777C147.855 157.082 147.574 156.523 147.012 156.102C146.457 155.68 145.617 155.352 144.492 155.117C143.367 154.875 142.492 154.602 141.867 154.297C141.25 153.984 140.789 153.605 140.484 153.16C140.188 152.715 140.039 152.176 140.039 151.543C140.039 150.543 140.457 149.719 141.293 149.07C142.129 148.414 143.199 148.086 144.504 148.086C145.918 148.086 147.051 148.438 147.902 149.141C148.762 149.836 149.191 150.746 149.191 151.871H147.785C147.785 151.129 147.473 150.512 146.848 150.02C146.23 149.527 145.449 149.281 144.504 149.281C143.582 149.281 142.84 149.488 142.277 149.902C141.723 150.309 141.445 150.84 141.445 151.496C141.445 152.129 141.676 152.621 142.137 152.973C142.605 153.316 143.453 153.633 144.68 153.922C145.914 154.211 146.836 154.52 147.445 154.848C148.062 155.176 148.52 155.57 148.816 156.031C149.113 156.492 149.262 157.051 149.262 157.707C149.262 158.777 148.828 159.633 147.961 160.273C147.102 160.914 145.977 161.234 144.586 161.234C143.109 161.234 141.91 160.879 140.988 160.168C140.074 159.449 139.617 158.543 139.617 157.449H141.023C141.078 158.27 141.422 158.91 142.055 159.371C142.695 159.824 143.539 160.051 144.586 160.051C145.562 160.051 146.352 159.836 146.953 159.406C147.555 158.977 147.855 158.434 147.855 157.777ZM160.02 157.777C160.02 157.082 159.738 156.523 159.176 156.102C158.621 155.68 157.781 155.352 156.656 155.117C155.531 154.875 154.656 154.602 154.031 154.297C153.414 153.984 152.953 153.605 152.648 153.16C152.352 152.715 152.203 152.176 152.203 151.543C152.203 150.543 152.621 149.719 153.457 149.07C154.293 148.414 155.363 148.086 156.668 148.086C158.082 148.086 159.215 148.438 160.066 149.141C160.926 149.836 161.355 150.746 161.355 151.871H159.949C159.949 151.129 159.637 150.512 159.012 150.02C158.395 149.527 157.613 149.281 156.668 149.281C155.746 149.281 155.004 149.488 154.441 149.902C153.887 150.309 153.609 150.84 153.609 151.496C153.609 152.129 153.84 152.621 154.301 152.973C154.77 153.316 155.617 153.633 156.844 153.922C158.078 154.211 159 154.52 159.609 154.848C160.227 155.176 160.684 155.57 160.98 156.031C161.277 156.492 161.426 157.051 161.426 157.707C161.426 158.777 160.992 159.633 160.125 160.273C159.266 160.914 158.141 161.234 156.75 161.234C155.273 161.234 154.074 160.879 153.152 160.168C152.238 159.449 151.781 158.543 151.781 157.449H153.188C153.242 158.27 153.586 158.91 154.219 159.371C154.859 159.824 155.703 160.051 156.75 160.051C157.727 160.051 158.516 159.836 159.117 159.406C159.719 158.977 160.02 158.434 160.02 157.777ZM65.9883 189V171.938H71.0273C72.8555 171.938 74.2422 172.316 75.1875 173.074C76.1328 173.824 76.6055 174.934 76.6055 176.402C76.6055 177.285 76.3633 178.055 75.8789 178.711C75.4023 179.359 74.7461 179.824 73.9102 180.105C74.9023 180.324 75.6992 180.812 76.3008 181.57C76.9102 182.328 77.2148 183.203 77.2148 184.195C77.2148 185.703 76.7266 186.883 75.75 187.734C74.7812 188.578 73.4297 189 71.6953 189H65.9883ZM67.4297 180.797V187.781H71.7539C72.9883 187.781 73.9648 187.469 74.6836 186.844C75.4102 186.211 75.7734 185.336 75.7734 184.219C75.7734 183.164 75.4258 182.332 74.7305 181.723C74.043 181.105 73.0898 180.797 71.8711 180.797H67.4297ZM67.4297 179.59H71.3672C72.5703 179.566 73.5 179.285 74.1562 178.746C74.8203 178.199 75.1523 177.406 75.1523 176.367C75.1523 175.273 74.8086 174.469 74.1211 173.953C73.4414 173.43 72.4102 173.168 71.0273 173.168H67.4297V179.59ZM79.6055 182.473C79.6055 181.254 79.8398 180.156 80.3086 179.18C80.7852 178.203 81.4531 177.445 82.3125 176.906C83.1797 176.359 84.1602 176.086 85.2539 176.086C86.9414 176.086 88.3086 176.68 89.3555 177.867C90.4023 179.047 90.9258 180.613 90.9258 182.566V182.859C90.9258 184.086 90.6875 185.191 90.2109 186.176C89.7422 187.152 89.0781 187.906 88.2188 188.438C87.3594 188.969 86.3789 189.234 85.2773 189.234C83.5977 189.234 82.2305 188.645 81.1758 187.465C80.1289 186.277 79.6055 184.707 79.6055 182.754V182.473ZM81.0117 182.859C81.0117 184.375 81.4023 185.621 82.1836 186.598C82.9727 187.566 84.0039 188.051 85.2773 188.051C86.543 188.051 87.5664 187.566 88.3477 186.598C89.1367 185.621 89.5312 184.336 89.5312 182.742V182.473C89.5312 181.504 89.3516 180.617 88.9922 179.812C88.6328 179.008 88.1289 178.387 87.4805 177.949C86.832 177.504 86.0898 177.281 85.2539 177.281C84.0039 177.281 82.9844 177.773 82.1953 178.758C81.4062 179.734 81.0117 181.016 81.0117 182.602V182.859ZM93.0586 182.473C93.0586 181.254 93.293 180.156 93.7617 179.18C94.2383 178.203 94.9062 177.445 95.7656 176.906C96.6328 176.359 97.6133 176.086 98.707 176.086C100.395 176.086 101.762 176.68 102.809 177.867C103.855 179.047 104.379 180.613 104.379 182.566V182.859C104.379 184.086 104.141 185.191 103.664 186.176C103.195 187.152 102.531 187.906 101.672 188.438C100.812 188.969 99.832 189.234 98.7305 189.234C97.0508 189.234 95.6836 188.645 94.6289 187.465C93.582 186.277 93.0586 184.707 93.0586 182.754V182.473ZM94.4648 182.859C94.4648 184.375 94.8555 185.621 95.6367 186.598C96.4258 187.566 97.457 188.051 98.7305 188.051C99.9961 188.051 101.02 187.566 101.801 186.598C102.59 185.621 102.984 184.336 102.984 182.742V182.473C102.984 181.504 102.805 180.617 102.445 179.812C102.086 179.008 101.582 178.387 100.934 177.949C100.285 177.504 99.543 177.281 98.707 177.281C97.457 177.281 96.4375 177.773 95.6484 178.758C94.8594 179.734 94.4648 181.016 94.4648 182.602V182.859ZM109.465 173.074V176.32H112.09V177.469H109.465V185.918C109.465 186.621 109.59 187.145 109.84 187.488C110.098 187.832 110.523 188.004 111.117 188.004C111.352 188.004 111.73 187.965 112.254 187.887L112.312 189.035C111.945 189.168 111.445 189.234 110.812 189.234C109.852 189.234 109.152 188.957 108.715 188.402C108.277 187.84 108.059 187.016 108.059 185.93V177.469H105.727V176.32H108.059V173.074H109.465ZM119.684 188.051C120.66 188.051 121.477 187.777 122.133 187.23C122.797 186.676 123.156 185.961 123.211 185.086H124.559C124.52 185.859 124.277 186.566 123.832 187.207C123.387 187.84 122.793 188.336 122.051 188.695C121.316 189.055 120.527 189.234 119.684 189.234C118.02 189.234 116.699 188.656 115.723 187.5C114.754 186.344 114.27 184.789 114.27 182.836V182.414C114.27 181.164 114.488 180.059 114.926 179.098C115.363 178.137 115.988 177.395 116.801 176.871C117.621 176.348 118.578 176.086 119.672 176.086C121.062 176.086 122.207 176.5 123.105 177.328C124.012 178.156 124.496 179.246 124.559 180.598H123.211C123.148 179.605 122.789 178.805 122.133 178.195C121.484 177.586 120.664 177.281 119.672 177.281C118.406 177.281 117.422 177.738 116.719 178.652C116.023 179.566 115.676 180.848 115.676 182.496V182.906C115.676 184.523 116.023 185.785 116.719 186.691C117.422 187.598 118.41 188.051 119.684 188.051ZM135.375 189C135.234 188.602 135.145 188.012 135.105 187.23C134.613 187.871 133.984 188.367 133.219 188.719C132.461 189.062 131.656 189.234 130.805 189.234C129.586 189.234 128.598 188.895 127.84 188.215C127.09 187.535 126.715 186.676 126.715 185.637C126.715 184.402 127.227 183.426 128.25 182.707C129.281 181.988 130.715 181.629 132.551 181.629H135.094V180.188C135.094 179.281 134.812 178.57 134.25 178.055C133.695 177.531 132.883 177.27 131.812 177.27C130.836 177.27 130.027 177.52 129.387 178.02C128.746 178.52 128.426 179.121 128.426 179.824L127.02 179.812C127.02 178.805 127.488 177.934 128.426 177.199C129.363 176.457 130.516 176.086 131.883 176.086C133.297 176.086 134.41 176.441 135.223 177.152C136.043 177.855 136.465 178.84 136.488 180.105V186.105C136.488 187.332 136.617 188.25 136.875 188.859V189H135.375ZM130.969 187.992C131.906 187.992 132.742 187.766 133.477 187.312C134.219 186.859 134.758 186.254 135.094 185.496V182.707H132.586C131.188 182.723 130.094 182.98 129.305 183.48C128.516 183.973 128.121 184.652 128.121 185.52C128.121 186.23 128.383 186.82 128.906 187.289C129.438 187.758 130.125 187.992 130.969 187.992ZM141.516 176.32L141.562 178.383C142.031 177.617 142.617 177.043 143.32 176.66C144.023 176.277 144.805 176.086 145.664 176.086C147.664 176.086 148.934 176.906 149.473 178.547C149.926 177.758 150.531 177.152 151.289 176.73C152.047 176.301 152.883 176.086 153.797 176.086C156.516 176.086 157.902 177.57 157.957 180.539V189H156.551V180.645C156.543 179.512 156.297 178.672 155.812 178.125C155.336 177.578 154.555 177.305 153.469 177.305C152.461 177.32 151.609 177.648 150.914 178.289C150.219 178.922 149.832 179.695 149.754 180.609V189H148.348V180.539C148.34 179.453 148.082 178.645 147.574 178.113C147.074 177.574 146.301 177.305 145.254 177.305C144.371 177.305 143.613 177.559 142.98 178.066C142.348 178.566 141.879 179.312 141.574 180.305V189H140.168V176.32H141.516ZM171.715 182.789C171.715 184.766 171.277 186.336 170.402 187.5C169.527 188.656 168.355 189.234 166.887 189.234C165.152 189.234 163.824 188.625 162.902 187.406V193.875H161.508V176.32H162.809L162.879 178.113C163.793 176.762 165.117 176.086 166.852 176.086C168.367 176.086 169.555 176.66 170.414 177.809C171.281 178.957 171.715 180.551 171.715 182.59V182.789ZM170.309 182.543C170.309 180.926 169.977 179.648 169.312 178.711C168.648 177.773 167.723 177.305 166.535 177.305C165.676 177.305 164.938 177.512 164.32 177.926C163.703 178.34 163.23 178.941 162.902 179.73V185.812C163.238 186.539 163.719 187.094 164.344 187.477C164.969 187.859 165.707 188.051 166.559 188.051C167.738 188.051 168.656 187.582 169.312 186.645C169.977 185.699 170.309 184.332 170.309 182.543ZM182.426 185.777C182.426 185.082 182.145 184.523 181.582 184.102C181.027 183.68 180.188 183.352 179.062 183.117C177.938 182.875 177.062 182.602 176.438 182.297C175.82 181.984 175.359 181.605 175.055 181.16C174.758 180.715 174.609 180.176 174.609 179.543C174.609 178.543 175.027 177.719 175.863 177.07C176.699 176.414 177.77 176.086 179.074 176.086C180.488 176.086 181.621 176.438 182.473 177.141C183.332 177.836 183.762 178.746 183.762 179.871H182.355C182.355 179.129 182.043 178.512 181.418 178.02C180.801 177.527 180.02 177.281 179.074 177.281C178.152 177.281 177.41 177.488 176.848 177.902C176.293 178.309 176.016 178.84 176.016 179.496C176.016 180.129 176.246 180.621 176.707 180.973C177.176 181.316 178.023 181.633 179.25 181.922C180.484 182.211 181.406 182.52 182.016 182.848C182.633 183.176 183.09 183.57 183.387 184.031C183.684 184.492 183.832 185.051 183.832 185.707C183.832 186.777 183.398 187.633 182.531 188.273C181.672 188.914 180.547 189.234 179.156 189.234C177.68 189.234 176.48 188.879 175.559 188.168C174.645 187.449 174.188 186.543 174.188 185.449H175.594C175.648 186.27 175.992 186.91 176.625 187.371C177.266 187.824 178.109 188.051 179.156 188.051C180.133 188.051 180.922 187.836 181.523 187.406C182.125 186.977 182.426 186.434 182.426 185.777Z" fill="#E5E5E5"/>
</svg>
