<svg width="250" height="250" viewBox="0 0 250 250" fill="none" xmlns="http://www.w3.org/2000/svg">
<path d="M21.7468 65.3867L125 5.7735L228.253 65.3867V184.613L125 244.227L21.7468 184.613V65.3867Z" fill="#7B2CBF" stroke="#5A189A" stroke-width="10"/>
<path d="M110.438 73.4375V104.688L135.438 115.625L160.438 104.688V73.4375" stroke="#C77DFF" stroke-width="2" stroke-miterlimit="10" stroke-linecap="round" stroke-linejoin="round"/>
<path d="M110.438 73.4375L135.438 84.375L160.438 73.4375" stroke="#C77DFF" stroke-width="2" stroke-miterlimit="10" stroke-linecap="round" stroke-linejoin="round"/>
<path d="M122.938 67.9688L147.938 79.0031V89.0625" stroke="#C77DFF" stroke-width="2" stroke-miterlimit="10" stroke-linecap="round" stroke-linejoin="round"/>
<path d="M110.438 73.4375L135.438 62.5L160.438 73.4375" stroke="#C77DFF" stroke-width="2" stroke-miterlimit="10" stroke-linecap="round" stroke-linejoin="round"/>
<path d="M91.6875 92.6625L91.8344 92.7313L104.188 98.4375" stroke="#C77DFF" stroke-width="2" stroke-miterlimit="10" stroke-linecap="round" stroke-linejoin="round"/>
<path d="M93.8936 82.7437L104.187 87.5" stroke="#C77DFF" stroke-width="2" stroke-miterlimit="10" stroke-linecap="round" stroke-linejoin="round"/>
<path d="M95.9531 72.7594L104.187 76.5625" stroke="#C77DFF" stroke-width="2" stroke-miterlimit="10" stroke-linecap="round" stroke-linejoin="round"/>
<path d="M135.438 84.375V115.625" stroke="#C77DFF" stroke-width="2" stroke-miterlimit="10" stroke-linecap="round" stroke-linejoin="round"/>
<path d="M97.793 153.031H89.8359V161H88.3945V143.938H98.9648V145.168H89.8359V151.801H97.793V153.031ZM103.137 161H101.73V148.32H103.137V161ZM101.484 144.652C101.484 144.387 101.57 144.164 101.742 143.984C101.914 143.797 102.148 143.703 102.445 143.703C102.742 143.703 102.977 143.797 103.148 143.984C103.328 144.164 103.418 144.387 103.418 144.652C103.418 144.918 103.328 145.141 103.148 145.32C102.977 145.5 102.742 145.59 102.445 145.59C102.148 145.59 101.914 145.5 101.742 145.32C101.57 145.141 101.484 144.918 101.484 144.652ZM109.137 145.074V148.32H111.762V149.469H109.137V157.918C109.137 158.621 109.262 159.145 109.512 159.488C109.77 159.832 110.195 160.004 110.789 160.004C111.023 160.004 111.402 159.965 111.926 159.887L111.984 161.035C111.617 161.168 111.117 161.234 110.484 161.234C109.523 161.234 108.824 160.957 108.387 160.402C107.949 159.84 107.73 159.016 107.73 157.93V149.469H105.398V148.32H107.73V145.074H109.137ZM116.004 148.32L116.051 150.488C116.527 149.707 117.121 149.113 117.832 148.707C118.543 148.293 119.328 148.086 120.188 148.086C121.547 148.086 122.559 148.469 123.223 149.234C123.887 150 124.223 151.148 124.23 152.68V161H122.836V152.668C122.828 151.535 122.586 150.691 122.109 150.137C121.641 149.582 120.887 149.305 119.848 149.305C118.98 149.305 118.211 149.578 117.539 150.125C116.875 150.664 116.383 151.395 116.062 152.316V161H114.668V148.32H116.004ZM132.773 161.234C131.695 161.234 130.719 160.969 129.844 160.438C128.977 159.906 128.301 159.168 127.816 158.223C127.332 157.27 127.09 156.203 127.09 155.023V154.52C127.09 153.301 127.324 152.203 127.793 151.227C128.27 150.25 128.93 149.484 129.773 148.93C130.617 148.367 131.531 148.086 132.516 148.086C134.055 148.086 135.273 148.613 136.172 149.668C137.078 150.715 137.531 152.148 137.531 153.969V154.754H128.484V155.023C128.484 156.461 128.895 157.66 129.715 158.621C130.543 159.574 131.582 160.051 132.832 160.051C133.582 160.051 134.242 159.914 134.812 159.641C135.391 159.367 135.914 158.93 136.383 158.328L137.262 158.996C136.23 160.488 134.734 161.234 132.773 161.234ZM132.516 149.281C131.461 149.281 130.57 149.668 129.844 150.441C129.125 151.215 128.688 152.254 128.531 153.559H136.137V153.406C136.098 152.188 135.75 151.195 135.094 150.43C134.438 149.664 133.578 149.281 132.516 149.281ZM147.855 157.777C147.855 157.082 147.574 156.523 147.012 156.102C146.457 155.68 145.617 155.352 144.492 155.117C143.367 154.875 142.492 154.602 141.867 154.297C141.25 153.984 140.789 153.605 140.484 153.16C140.188 152.715 140.039 152.176 140.039 151.543C140.039 150.543 140.457 149.719 141.293 149.07C142.129 148.414 143.199 148.086 144.504 148.086C145.918 148.086 147.051 148.438 147.902 149.141C148.762 149.836 149.191 150.746 149.191 151.871H147.785C147.785 151.129 147.473 150.512 146.848 150.02C146.23 149.527 145.449 149.281 144.504 149.281C143.582 149.281 142.84 149.488 142.277 149.902C141.723 150.309 141.445 150.84 141.445 151.496C141.445 152.129 141.676 152.621 142.137 152.973C142.605 153.316 143.453 153.633 144.68 153.922C145.914 154.211 146.836 154.52 147.445 154.848C148.062 155.176 148.52 155.57 148.816 156.031C149.113 156.492 149.262 157.051 149.262 157.707C149.262 158.777 148.828 159.633 147.961 160.273C147.102 160.914 145.977 161.234 144.586 161.234C143.109 161.234 141.91 160.879 140.988 160.168C140.074 159.449 139.617 158.543 139.617 157.449H141.023C141.078 158.27 141.422 158.91 142.055 159.371C142.695 159.824 143.539 160.051 144.586 160.051C145.562 160.051 146.352 159.836 146.953 159.406C147.555 158.977 147.855 158.434 147.855 157.777ZM160.02 157.777C160.02 157.082 159.738 156.523 159.176 156.102C158.621 155.68 157.781 155.352 156.656 155.117C155.531 154.875 154.656 154.602 154.031 154.297C153.414 153.984 152.953 153.605 152.648 153.16C152.352 152.715 152.203 152.176 152.203 151.543C152.203 150.543 152.621 149.719 153.457 149.07C154.293 148.414 155.363 148.086 156.668 148.086C158.082 148.086 159.215 148.438 160.066 149.141C160.926 149.836 161.355 150.746 161.355 151.871H159.949C159.949 151.129 159.637 150.512 159.012 150.02C158.395 149.527 157.613 149.281 156.668 149.281C155.746 149.281 155.004 149.488 154.441 149.902C153.887 150.309 153.609 150.84 153.609 151.496C153.609 152.129 153.84 152.621 154.301 152.973C154.77 153.316 155.617 153.633 156.844 153.922C158.078 154.211 159 154.52 159.609 154.848C160.227 155.176 160.684 155.57 160.98 156.031C161.277 156.492 161.426 157.051 161.426 157.707C161.426 158.777 160.992 159.633 160.125 160.273C159.266 160.914 158.141 161.234 156.75 161.234C155.273 161.234 154.074 160.879 153.152 160.168C152.238 159.449 151.781 158.543 151.781 157.449H153.188C153.242 158.27 153.586 158.91 154.219 159.371C154.859 159.824 155.703 160.051 156.75 160.051C157.727 160.051 158.516 159.836 159.117 159.406C159.719 158.977 160.02 158.434 160.02 157.777ZM76.8984 182.051V189H75.457V171.938H81.2695C83.043 171.938 84.4414 172.391 85.4648 173.297C86.4961 174.203 87.0117 175.449 87.0117 177.035C87.0117 178.637 86.5156 179.875 85.5234 180.75C84.5391 181.617 83.1094 182.051 81.2344 182.051H76.8984ZM76.8984 180.832H81.2695C82.668 180.832 83.7344 180.5 84.4688 179.836C85.2031 179.172 85.5703 178.246 85.5703 177.059C85.5703 175.879 85.2031 174.941 84.4688 174.246C83.7422 173.543 82.707 173.184 81.3633 173.168H76.8984V180.832ZM97.7812 189C97.6406 188.602 97.5508 188.012 97.5117 187.23C97.0195 187.871 96.3906 188.367 95.625 188.719C94.8672 189.062 94.0625 189.234 93.2109 189.234C91.9922 189.234 91.0039 188.895 90.2461 188.215C89.4961 187.535 89.1211 186.676 89.1211 185.637C89.1211 184.402 89.6328 183.426 90.6562 182.707C91.6875 181.988 93.1211 181.629 94.957 181.629H97.5V180.188C97.5 179.281 97.2188 178.57 96.6562 178.055C96.1016 177.531 95.2891 177.27 94.2188 177.27C93.2422 177.27 92.4336 177.52 91.793 178.02C91.1523 178.52 90.832 179.121 90.832 179.824L89.4258 179.812C89.4258 178.805 89.8945 177.934 90.832 177.199C91.7695 176.457 92.9219 176.086 94.2891 176.086C95.7031 176.086 96.8164 176.441 97.6289 177.152C98.4492 177.855 98.8711 178.84 98.8945 180.105V186.105C98.8945 187.332 99.0234 188.25 99.2812 188.859V189H97.7812ZM93.375 187.992C94.3125 187.992 95.1484 187.766 95.8828 187.312C96.625 186.859 97.1641 186.254 97.5 185.496V182.707H94.9922C93.5938 182.723 92.5 182.98 91.7109 183.48C90.9219 183.973 90.5273 184.652 90.5273 185.52C90.5273 186.23 90.7891 186.82 91.3125 187.289C91.8438 187.758 92.5312 187.992 93.375 187.992ZM107.332 188.051C108.309 188.051 109.125 187.777 109.781 187.23C110.445 186.676 110.805 185.961 110.859 185.086H112.207C112.168 185.859 111.926 186.566 111.48 187.207C111.035 187.84 110.441 188.336 109.699 188.695C108.965 189.055 108.176 189.234 107.332 189.234C105.668 189.234 104.348 188.656 103.371 187.5C102.402 186.344 101.918 184.789 101.918 182.836V182.414C101.918 181.164 102.137 180.059 102.574 179.098C103.012 178.137 103.637 177.395 104.449 176.871C105.27 176.348 106.227 176.086 107.32 176.086C108.711 176.086 109.855 176.5 110.754 177.328C111.66 178.156 112.145 179.246 112.207 180.598H110.859C110.797 179.605 110.438 178.805 109.781 178.195C109.133 177.586 108.312 177.281 107.32 177.281C106.055 177.281 105.07 177.738 104.367 178.652C103.672 179.566 103.324 180.848 103.324 182.496V182.906C103.324 184.523 103.672 185.785 104.367 186.691C105.07 187.598 106.059 188.051 107.332 188.051ZM118.031 182.613L116.426 184.16V189H115.02V171H116.426V182.52L117.75 181.09L122.602 176.32H124.371L118.992 181.664L124.84 189H123.164L118.031 182.613ZM134.789 189C134.648 188.602 134.559 188.012 134.52 187.23C134.027 187.871 133.398 188.367 132.633 188.719C131.875 189.062 131.07 189.234 130.219 189.234C129 189.234 128.012 188.895 127.254 188.215C126.504 187.535 126.129 186.676 126.129 185.637C126.129 184.402 126.641 183.426 127.664 182.707C128.695 181.988 130.129 181.629 131.965 181.629H134.508V180.188C134.508 179.281 134.227 178.57 133.664 178.055C133.109 177.531 132.297 177.27 131.227 177.27C130.25 177.27 129.441 177.52 128.801 178.02C128.16 178.52 127.84 179.121 127.84 179.824L126.434 179.812C126.434 178.805 126.902 177.934 127.84 177.199C128.777 176.457 129.93 176.086 131.297 176.086C132.711 176.086 133.824 176.441 134.637 177.152C135.457 177.855 135.879 178.84 135.902 180.105V186.105C135.902 187.332 136.031 188.25 136.289 188.859V189H134.789ZM130.383 187.992C131.32 187.992 132.156 187.766 132.891 187.312C133.633 186.859 134.172 186.254 134.508 185.496V182.707H132C130.602 182.723 129.508 182.98 128.719 183.48C127.93 183.973 127.535 184.652 127.535 185.52C127.535 186.23 127.797 186.82 128.32 187.289C128.852 187.758 129.539 187.992 130.383 187.992ZM139.09 182.543C139.09 180.559 139.527 178.988 140.402 177.832C141.285 176.668 142.48 176.086 143.988 176.086C145.715 176.086 147.027 176.773 147.926 178.148L147.996 176.32H149.309V188.742C149.309 190.375 148.852 191.668 147.938 192.621C147.023 193.574 145.785 194.051 144.223 194.051C143.34 194.051 142.496 193.852 141.691 193.453C140.895 193.062 140.266 192.539 139.805 191.883L140.59 191.039C141.582 192.258 142.762 192.867 144.129 192.867C145.301 192.867 146.215 192.52 146.871 191.824C147.527 191.137 147.867 190.18 147.891 188.953V187.359C146.992 188.609 145.684 189.234 143.965 189.234C142.496 189.234 141.316 188.648 140.426 187.477C139.535 186.305 139.09 184.723 139.09 182.73V182.543ZM140.508 182.789C140.508 184.406 140.832 185.684 141.48 186.621C142.129 187.551 143.043 188.016 144.223 188.016C145.949 188.016 147.172 187.242 147.891 185.695V179.801C147.562 178.988 147.09 178.371 146.473 177.949C145.855 177.52 145.113 177.305 144.246 177.305C143.066 177.305 142.148 177.77 141.492 178.699C140.836 179.621 140.508 180.984 140.508 182.789ZM157.875 189.234C156.797 189.234 155.82 188.969 154.945 188.438C154.078 187.906 153.402 187.168 152.918 186.223C152.434 185.27 152.191 184.203 152.191 183.023V182.52C152.191 181.301 152.426 180.203 152.895 179.227C153.371 178.25 154.031 177.484 154.875 176.93C155.719 176.367 156.633 176.086 157.617 176.086C159.156 176.086 160.375 176.613 161.273 177.668C162.18 178.715 162.633 180.148 162.633 181.969V182.754H153.586V183.023C153.586 184.461 153.996 185.66 154.816 186.621C155.645 187.574 156.684 188.051 157.934 188.051C158.684 188.051 159.344 187.914 159.914 187.641C160.492 187.367 161.016 186.93 161.484 186.328L162.363 186.996C161.332 188.488 159.836 189.234 157.875 189.234ZM157.617 177.281C156.562 177.281 155.672 177.668 154.945 178.441C154.227 179.215 153.789 180.254 153.633 181.559H161.238V181.406C161.199 180.188 160.852 179.195 160.195 178.43C159.539 177.664 158.68 177.281 157.617 177.281ZM172.957 185.777C172.957 185.082 172.676 184.523 172.113 184.102C171.559 183.68 170.719 183.352 169.594 183.117C168.469 182.875 167.594 182.602 166.969 182.297C166.352 181.984 165.891 181.605 165.586 181.16C165.289 180.715 165.141 180.176 165.141 179.543C165.141 178.543 165.559 177.719 166.395 177.07C167.23 176.414 168.301 176.086 169.605 176.086C171.02 176.086 172.152 176.438 173.004 177.141C173.863 177.836 174.293 178.746 174.293 179.871H172.887C172.887 179.129 172.574 178.512 171.949 178.02C171.332 177.527 170.551 177.281 169.605 177.281C168.684 177.281 167.941 177.488 167.379 177.902C166.824 178.309 166.547 178.84 166.547 179.496C166.547 180.129 166.777 180.621 167.238 180.973C167.707 181.316 168.555 181.633 169.781 181.922C171.016 182.211 171.938 182.52 172.547 182.848C173.164 183.176 173.621 183.57 173.918 184.031C174.215 184.492 174.363 185.051 174.363 185.707C174.363 186.777 173.93 187.633 173.062 188.273C172.203 188.914 171.078 189.234 169.688 189.234C168.211 189.234 167.012 188.879 166.09 188.168C165.176 187.449 164.719 186.543 164.719 185.449H166.125C166.18 186.27 166.523 186.91 167.156 187.371C167.797 187.824 168.641 188.051 169.688 188.051C170.664 188.051 171.453 187.836 172.055 187.406C172.656 186.977 172.957 186.434 172.957 185.777Z" fill="#E5E5E5"/>
</svg>
