<svg width="123" height="103" viewBox="0 0 123 103" fill="none" xmlns="http://www.w3.org/2000/svg">
<g clip-path="url(#clip0)">
<path d="M66.41 85.97H88.32C90.08 84.22 92.01 82.4 93.97 80.55C98.08 76.66 102.37 72.6 106.78 67.52C111.82 61.71 112.36 59.7 113.89 54.01C114.18 52.94 114.5 51.74 114.92 50.25L117.54 41.04L117.57 40.94C118.97 36.84 119.08 34.13 118.5 32.57C118.32 32.09 118.09 31.77 117.82 31.6C117.61 31.46 117.33 31.41 117.04 31.44C116.36 31.51 115.59 31.94 114.89 32.71L107.11 51.24C107.04 51.41 106.94 51.57 106.83 51.71C106.37 52.54 105.75 53.35 104.95 54.12L91.14 69.5C90.39 70.34 89.1 70.41 88.27 69.66C87.43 68.91 87.36 67.62 88.11 66.79L101.92 51.4C101.98 51.33 102.04 51.26 102.11 51.2C103.54 49.84 103.99 48.37 103.74 47.3C103.66 46.97 103.52 46.69 103.32 46.5C103.13 46.33 102.88 46.21 102.57 46.18C101.34 46.05 99.53 46.96 97.32 49.57C97.26 49.64 97.19 49.71 97.12 49.78L91.77 54.5L91.74 54.53C85.95 60.01 83.46 61.31 78.92 63.68C77.97 64.18 76.93 64.72 75.64 65.42C75.13 65.7 74.63 66.04 74.14 66.41C73.62 66.81 73.12 67.22 72.65 67.62C70.25 69.64 68.99 71.28 68.27 73.09C67.52 74.97 67.25 77.26 66.88 80.4C66.73 81.67 66.62 82.92 66.53 84.17C66.47 84.78 66.44 85.38 66.41 85.97ZM61.32 8.74999C65.4 4.49999 68.25 0.829993 74.53 0.0999932C86.31 -1.25001 97.15 10.82 91.2 22.7C89.5 26.08 86.06 30.11 82.24 34.06C78.05 38.4 73.42 42.64 70.17 45.86L61.32 54.64L54.01 47.6C45.21 39.12 30.86 28.46 30.39 15.24C30.06 5.97999 37.36 0.0499932 45.77 0.159993C53.28 0.249993 56.43 3.98999 61.32 8.74999ZM56.47 85.97H34.55C32.79 84.22 30.86 82.4 28.9 80.55C24.79 76.66 20.5 72.6 16.09 67.52C11.05 61.71 10.51 59.7 8.98003 54.01C8.69003 52.94 8.37003 51.74 7.95003 50.25L5.33003 41.04L5.30003 40.94C3.90003 36.84 3.79003 34.13 4.37003 32.57C4.55003 32.09 4.78003 31.77 5.05003 31.6C5.26003 31.46 5.54003 31.41 5.83003 31.44C6.53003 31.5 7.30003 31.94 8.00003 32.7L15.78 51.23C15.85 51.4 15.95 51.56 16.06 51.7C16.52 52.53 17.14 53.34 17.94 54.11L31.74 69.5C32.49 70.34 33.78 70.41 34.61 69.66C35.45 68.91 35.52 67.62 34.77 66.79L20.96 51.39C20.9 51.32 20.84 51.25 20.77 51.19C19.34 49.83 18.89 48.36 19.14 47.29C19.22 46.96 19.36 46.68 19.56 46.49C19.75 46.32 20 46.2 20.31 46.17C21.54 46.04 23.36 46.95 25.56 49.56C25.62 49.63 25.69 49.7 25.76 49.77L31.11 54.49L31.14 54.52C36.93 60 39.42 61.3 43.96 63.67C44.91 64.17 45.95 64.71 47.24 65.41C47.75 65.69 48.25 66.03 48.74 66.4C49.26 66.8 49.76 67.21 50.23 67.61C52.63 69.63 53.89 71.27 54.61 73.08C55.36 74.96 55.63 77.25 56 80.39C56.15 81.66 56.26 82.91 56.35 84.16C56.41 84.78 56.44 85.38 56.47 85.97ZM29.45 86.67C29.14 87.03 28.95 87.5 28.95 88.01V100.15C28.95 101.28 29.87 102.19 30.99 102.19H58.57C59.7 102.19 60.61 101.28 60.61 100.15V87.9C60.61 86.6 60.53 85.2 60.44 83.9C60.35 82.57 60.23 81.25 60.08 79.94C59.68 76.51 59.38 74 58.42 71.59C57.43 69.12 55.84 66.99 52.89 64.5C52.35 64.04 51.8 63.58 51.22 63.15C50.61 62.69 49.95 62.25 49.21 61.84C48.01 61.19 46.89 60.6 45.87 60.06C41.67 57.86 39.37 56.66 33.96 51.54C33.92 51.5 33.87 51.46 33.83 51.43L28.61 46.82C25.42 43.09 22.3 41.85 19.91 42.11H19.9C18.73 42.23 17.73 42.69 16.93 43.39L11.66 30.83H11.65C11.57 30.65 11.47 30.48 11.34 30.32C9.88003 28.57 8.03003 27.55 6.26003 27.37C5.05003 27.25 3.88003 27.51 2.86003 28.17C1.89003 28.8 1.09003 29.78 0.590029 31.13C-0.289971 33.48 -0.269971 37.13 1.45003 42.18L4.05003 51.33C4.43003 52.65 4.76003 53.92 5.07003 55.04C6.77003 61.39 7.37003 63.64 13.04 70.16C17.53 75.33 21.92 79.49 26.14 83.48C27.23 84.55 28.33 85.6 29.45 86.67ZM33.35 90.05C33.62 90.11 33.9 90.11 34.18 90.05H56.52V98.11H33.03V90.05H33.35ZM93.43 86.67C93.74 87.03 93.93 87.5 93.93 88.01V100.15C93.93 101.28 93.02 102.19 91.89 102.19H64.32C63.19 102.19 62.28 101.28 62.28 100.15V87.9C62.28 87.83 62.28 87.75 62.29 87.68C62.32 86.37 62.37 85.1 62.45 83.9C62.54 82.57 62.66 81.25 62.81 79.94C63.21 76.51 63.51 74 64.47 71.59C65.46 69.12 67.05 66.99 70 64.5C70.54 64.04 71.09 63.58 71.67 63.15C72.28 62.69 72.94 62.25 73.68 61.84C74.88 61.19 76 60.6 77.02 60.06C81.22 57.86 83.52 56.66 88.93 51.54C88.97 51.5 89.02 51.46 89.06 51.43L94.28 46.82C97.47 43.09 100.59 41.85 102.98 42.11H102.99C104.16 42.23 105.16 42.69 105.96 43.39L111.23 30.83H111.24C111.32 30.65 111.42 30.48 111.55 30.32C113.01 28.57 114.86 27.55 116.63 27.37C117.84 27.25 119.01 27.51 120.03 28.17C121 28.8 121.8 29.78 122.3 31.13C123.18 33.48 123.16 37.13 121.44 42.18L118.84 51.33C118.46 52.65 118.13 53.92 117.82 55.04C116.12 61.39 115.52 63.64 109.85 70.16C105.36 75.33 100.97 79.49 96.75 83.48C95.65 84.55 94.55 85.6 93.43 86.67ZM89.53 90.05C89.26 90.11 88.98 90.11 88.7 90.05H66.36V98.11H89.85V90.05H89.53Z" fill="#C77DFF"/>
</g>
<defs>
<clipPath id="clip0">
<rect width="122.88" height="102.2" fill="white"/>
</clipPath>
</defs>
</svg>
