<svg width="50" height="50" viewBox="0 0 50 50" fill="none" xmlns="http://www.w3.org/2000/svg">
<path d="M44.4444 0H5.55556C2.48731 0 0 2.48731 0 5.55556V44.4444C0 47.5127 2.48731 50 5.55556 50H44.4444C47.5127 50 50 47.5127 50 44.4444V5.55556C50 2.48731 47.5127 0 44.4444 0Z" fill="#7B2CBF"/>
<path fill-rule="evenodd" clip-rule="evenodd" d="M41.9892 9.31764V15.7833L38.1518 15.7932C35.1438 15.7932 34.5642 17.2223 34.5642 19.3109V23.9377H41.7293L40.8 31.1728H34.5642V50.0001H27.0903V31.1728H20.8335V23.9377H27.0903V18.6013C27.0903 12.4055 30.8667 9.02783 36.4029 9.02783C39.0422 9.02783 41.3196 9.2277 41.9892 9.31764Z" fill="#E0AAFF"/>
</svg>
