<svg width="123" height="104" viewBox="0 0 123 104" fill="none" xmlns="http://www.w3.org/2000/svg">
<g clip-path="url(#clip0)">
<path fill-rule="evenodd" clip-rule="evenodd" d="M61.07 10.48C65.96 5.39001 69.38 0.980009 76.91 0.120009C91.04 -1.49999 104.05 12.97 96.91 27.22C94.88 31.28 90.74 36.1 86.16 40.84C81.14 46.04 75.58 51.13 71.69 54.99L61.07 65.53L52.3 57.09C41.74 46.92 24.53 34.12 23.97 18.27C23.57 7.17001 32.33 0.0500094 42.41 0.180009C51.42 0.300009 55.2 4.78001 61.07 10.48ZM4.08 61.55H9.73C9.88 61.55 10.02 61.56 10.17 61.57V57.52C10.17 57.46 10.18 57.4 10.18 57.34C10.23 56.29 10.67 55.34 11.37 54.64C12.1 53.9 13.12 53.45 14.25 53.45H19.9C20.05 53.45 20.19 53.46 20.34 53.47V49.42C20.34 48.3 20.8 47.28 21.54 46.54C22.27 45.81 23.29 45.35 24.41 45.35H30.06C31.18 45.35 32.2 45.81 32.94 46.55C33.68 47.29 34.14 48.3 34.14 49.43V98.98C34.14 100.1 33.68 101.12 32.94 101.86C32.2 102.6 31.19 103.06 30.06 103.06H24.41C24.35 103.06 24.29 103.05 24.23 103.05C23.18 103 22.23 102.56 21.53 101.86C20.8 101.12 20.34 100.11 20.34 98.99V95.56C20.2 95.58 20.05 95.59 19.9 95.59H14.25C14.19 95.59 14.13 95.58 14.07 95.58C13.03 95.53 12.08 95.09 11.38 94.39C10.64 93.65 10.18 92.64 10.19 91.52V86.84C10.05 86.86 9.9 86.87 9.75 86.86H4.09C2.97 86.86 1.95 86.4 1.21 85.66C0.48 84.93 0.01 83.91 0.01 82.78L0 65.63C0 64.51 0.46 63.48 1.19 62.75C1.93 62.01 2.95 61.56 4.08 61.55ZM98.49 48.98H92.84H92.79C92.69 49 92.6 49.04 92.53 49.11C92.45 49.19 92.4 49.3 92.4 49.42V98.97C92.4 99.09 92.45 99.2 92.53 99.28C92.61 99.36 92.72 99.41 92.84 99.41H98.49H98.54C98.63 99.4 98.73 99.35 98.8 99.28C98.88 99.2 98.94 99.09 98.94 98.98C98.94 82.46 98.93 65.95 98.93 49.43C98.93 49.31 98.88 49.2 98.8 49.12C98.71 49.02 98.61 48.98 98.49 48.98ZM81.32 70.21V78.99L42.14 78.98V70.2L81.32 70.21ZM118.8 65.19H113.15C113.02 65.19 112.91 65.24 112.84 65.32C112.77 65.39 112.73 65.47 112.71 65.57V65.63V82.76V82.81C112.72 82.9 112.77 82.99 112.84 83.06C112.92 83.14 113.04 83.19 113.15 83.19H118.8C118.93 83.19 119.04 83.14 119.11 83.06C119.19 82.98 119.24 82.87 119.24 82.75L119.23 65.63C119.23 65.51 119.18 65.4 119.1 65.32C119.02 65.24 118.92 65.19 118.8 65.19ZM113.16 61.55H118.8C119.93 61.55 120.94 62.01 121.68 62.75C122.42 63.49 122.88 64.5 122.88 65.63V82.76C122.88 83.87 122.42 84.9 121.68 85.62C120.94 86.36 119.92 86.82 118.81 86.82H113.16C113.01 86.82 112.87 86.81 112.72 86.8V91.48C112.72 92.6 112.26 93.62 111.52 94.36C110.78 95.1 109.76 95.55 108.64 95.56H102.99C102.84 95.56 102.7 95.55 102.55 95.53V98.96C102.55 100.08 102.09 101.1 101.36 101.83C100.66 102.53 99.71 102.97 98.66 103.02C98.6 103.02 98.54 103.03 98.48 103.03H92.83C91.71 103.03 90.69 102.57 89.95 101.83C89.21 101.09 88.76 100.07 88.75 98.95L88.73 49.42C88.73 48.3 89.19 47.27 89.92 46.54C90.62 45.84 91.57 45.4 92.62 45.35C92.68 45.34 92.74 45.34 92.8 45.34H98.45C99.57 45.34 100.58 45.8 101.32 46.53C102.06 47.27 102.51 48.29 102.52 49.41V53.46C102.66 53.44 102.81 53.43 102.96 53.44H108.61C109.73 53.44 110.75 53.9 111.49 54.63C112.23 55.37 112.68 56.39 112.68 57.51V61.56C112.87 61.56 113.01 61.55 113.16 61.55ZM108.64 57.08H103C102.88 57.08 102.78 57.13 102.69 57.21C102.61 57.29 102.56 57.39 102.56 57.51V57.52V91.48C102.56 91.6 102.61 91.71 102.69 91.79C102.77 91.87 102.88 91.93 102.99 91.93H108.64C108.76 91.93 108.86 91.88 108.95 91.8C109.03 91.72 109.08 91.61 109.08 91.49C109.08 80.17 109.08 68.84 109.09 57.52C109.09 57.4 109.04 57.29 108.96 57.21C108.87 57.13 108.76 57.08 108.64 57.08ZM23.95 98.95C23.95 99.07 24.01 99.18 24.09 99.25C24.16 99.32 24.25 99.37 24.35 99.38H24.4H30.05C30.17 99.38 30.28 99.33 30.36 99.25C30.44 99.17 30.49 99.06 30.49 98.94L30.48 49.41C30.48 49.29 30.43 49.18 30.35 49.1C30.27 49.02 30.16 48.97 30.04 48.97H24.39C24.27 48.97 24.16 49.03 24.09 49.11C24.01 49.19 23.96 49.3 23.96 49.42C23.95 65.93 23.95 82.44 23.95 98.95ZM20.31 91.54V91.49V57.52V57.46C20.29 57.36 20.25 57.28 20.18 57.21C20.1 57.13 19.99 57.08 19.87 57.08H14.22C14.1 57.08 13.99 57.14 13.91 57.22C13.84 57.29 13.8 57.38 13.78 57.48V57.53C13.78 68.85 13.78 80.17 13.78 91.49C13.78 91.62 13.83 91.72 13.91 91.8C13.98 91.87 14.07 91.92 14.17 91.93H14.22H19.87C19.99 91.93 20.1 91.87 20.17 91.79C20.25 91.72 20.3 91.63 20.31 91.54ZM9.72 65.19H4.07C3.95 65.19 3.84 65.24 3.76 65.32C3.68 65.4 3.63 65.51 3.63 65.63V82.76C3.63 82.88 3.68 82.99 3.76 83.07C3.84 83.15 3.95 83.2 4.07 83.2H9.72C9.84 83.2 9.95 83.15 10.03 83.07C10.11 82.99 10.16 82.88 10.16 82.76L10.15 65.63V65.62C10.15 65.5 10.1 65.4 10.02 65.32C9.94 65.23 9.83 65.19 9.72 65.19ZM47.94 31.33C47.26 30.68 46.91 29.81 46.89 28.93C46.87 28.06 47.19 27.17 47.84 26.5C48.49 25.82 49.36 25.47 50.23 25.45C51.1 25.43 51.99 25.75 52.66 26.4L57.86 31.38L70.23 19.9L70.65 20.22L70.23 19.9C70.26 19.86 70.3 19.82 70.35 19.79C71.05 19.19 71.92 18.92 72.77 18.96L72.81 18.97C73.67 19.02 74.51 19.41 75.13 20.1C75.76 20.8 76.05 21.69 76 22.56L75.99 22.6C75.94 23.44 75.56 24.27 74.9 24.88L60.19 38.58C60.17 38.61 60.14 38.64 60.11 38.67C59.45 39.25 58.62 39.53 57.8 39.52C56.97 39.51 56.14 39.19 55.49 38.57L47.94 31.33Z" fill="#C77DFF"/>
</g>
<defs>
<clipPath id="clip0">
<rect width="122.88" height="103.05" fill="white"/>
</clipPath>
</defs>
</svg>
