<svg width="50" height="50" viewBox="0 0 50 50" fill="none" xmlns="http://www.w3.org/2000/svg">
<path fill-rule="evenodd" clip-rule="evenodd" d="M1.83919 19.5801H19.5801V1.83919C19.5801 0.830078 20.4102 0 21.4193 0H28.5767C29.5898 0 30.4159 0.830078 30.4159 1.83919V19.5801H48.1567C49.1699 19.5801 49.9959 20.4102 49.9959 21.4193V28.5767C49.9959 29.5858 49.1659 30.4159 48.1567 30.4159H30.4159V48.1567C30.4159 49.1699 29.5858 49.9959 28.5767 49.9959H21.4233C20.4142 49.9959 19.5841 49.1659 19.5841 48.1567V30.4159H1.83919C0.830078 30.4199 0 29.5898 0 28.5767V21.4233C0 20.4102 0.830078 19.5801 1.83919 19.5801Z" fill="#C77DFF"/>
</svg>
