<svg width="101" height="112" viewBox="0 0 101 112" fill="none" xmlns="http://www.w3.org/2000/svg">
<g clip-path="url(#clip0)">
<path d="M71.6693 75.0035C72.1485 75.195 72.5078 75.5413 72.6875 75.9515C72.8672 76.3616 72.8772 76.8356 72.6776 77.2731C72.4679 77.7106 72.0886 78.0387 71.6393 78.2028C71.1901 78.3668 70.6709 78.3759 70.1917 78.1937C67.4064 77.109 65.0903 75.4319 63.1436 73.2627C61.2268 71.1207 59.6894 68.4957 58.4715 65.4788C55.6063 63.8655 52.821 62.6533 50.1155 61.8421C47.3901 61.0218 44.7446 60.5934 42.1789 60.5752C39.743 60.5478 37.367 60.8759 35.0409 61.5595C32.8147 62.2158 30.6383 63.1911 28.5119 64.4853C29.7298 65.4788 30.848 66.5817 31.8563 67.7939C32.9345 69.0882 33.8829 70.5101 34.7115 72.0595C34.9411 72.4879 34.961 72.9619 34.8013 73.3812L34.7913 73.3994C34.6316 73.8095 34.3022 74.165 33.8329 74.3746C33.3637 74.5843 32.8446 74.6025 32.3854 74.4567L32.3654 74.4476C31.9162 74.3017 31.5268 74.0009 31.2972 73.5726C30.0992 71.3304 28.6017 69.3981 26.8148 67.7848C25.0278 66.1624 22.9513 64.8499 20.5952 63.8291C18.1793 62.7809 15.4639 62.0335 12.4689 61.5687C9.46396 61.1038 6.17949 60.9215 2.61549 61.0127C2.09636 61.0218 1.61717 60.8395 1.25777 60.5387C0.90836 60.2379 0.678747 59.8095 0.668763 59.3265C0.65878 58.8525 0.858444 58.415 1.18789 58.0869C1.51734 57.7679 1.98655 57.5582 2.51565 57.5491C6.36917 57.4489 9.94315 57.6494 13.2276 58.1689C16.5221 58.6884 19.517 59.527 22.2125 60.6936C22.7915 60.9397 23.3506 61.2041 23.8897 61.4866C24.3888 61.7418 24.868 62.0062 25.3372 62.2796C27.9628 60.5478 30.6683 59.2535 33.4536 58.3877C36.2888 57.5035 39.2039 57.0843 42.2088 57.1116C44.6447 57.139 47.1306 57.4671 49.6563 58.1051C52.0223 58.6976 54.4183 59.5634 56.8642 60.6936C56.7943 60.4202 56.7144 60.1559 56.6445 59.8825C56.5347 59.445 56.4249 58.9983 56.3151 58.5335C55.3068 54.195 54.6978 49.3278 54.3484 44.1142C54.009 39.0101 53.9191 33.5595 53.969 27.9358C49.3269 29.3759 44.7346 30.8069 40.0724 32.1924C38.4252 32.8668 36.9078 33.2041 35.5101 33.2132C34.1025 33.2314 32.8147 32.9215 31.6466 32.3291C30.5385 31.7731 29.5701 30.9619 28.7215 29.941C27.883 28.9293 27.1542 27.708 26.5352 26.3134C25.1775 24.3174 23.7799 22.3213 22.4621 20.3161C21.3939 18.6845 20.7849 17.1259 20.6352 15.6312C20.4954 14.1272 20.8248 12.6963 21.6335 11.3382C22.3822 10.0713 23.5403 8.91371 25.1276 7.8473C26.695 6.79912 28.6616 5.84209 31.0476 4.98532C35.5101 3.59079 40.2322 2.14157 44.7346 0.892875C46.4218 0.336885 48.059 0.036104 49.6363 -0.00035428C51.2237 -0.0368126 52.7511 0.191052 54.2186 0.701469C55.6263 1.19366 56.964 1.93194 58.2219 2.93454C59.4598 3.92803 60.6179 5.17673 61.696 6.68975C67.4264 10.0257 72.3781 14.1637 76.6309 19.0309C80.8838 23.9072 84.4278 29.5035 87.3429 35.7379C90.248 41.945 92.5341 48.79 94.2712 56.1728C96.0083 63.5465 97.2063 71.4671 97.945 79.8434C99.2428 83.2522 100.201 86.333 100.67 89.0765C101.15 91.8473 101.13 94.2627 100.481 96.3043C99.7819 98.5374 98.4043 100.297 96.2279 101.554C94.0715 102.794 91.1265 103.532 87.253 103.733C77.7291 105.948 68.7442 107.743 60.3383 109.083C51.9225 110.432 44.0957 111.325 36.8878 111.735C29.6001 112.145 22.9513 112.054 16.9813 111.435C11.0114 110.806 5.72026 109.639 1.15794 107.898C0.678747 107.716 0.319352 107.369 0.129671 106.959C-0.0600099 106.549 -0.0699931 106.075 0.129671 105.638C0.329335 105.2 0.708696 104.872 1.15794 104.699C1.60718 104.526 2.12631 104.517 2.6055 104.699C6.87831 106.33 11.8799 107.424 17.5703 108.017C23.2607 108.6 29.64 108.682 36.6482 108.29C43.7263 107.889 51.4433 107.005 59.7693 105.665C68.0853 104.334 77.0003 102.548 86.4644 100.342C86.4843 100.342 86.4943 100.333 86.5143 100.333C86.5642 100.324 86.6041 100.315 86.654 100.306C89.3195 99.941 91.2663 100.105 93.782 98.8017C95.3793 97.9723 96.3577 96.8147 96.8169 95.3473C97.3361 93.7067 97.3061 91.6559 96.8569 89.2314C96.3976 86.7978 95.5091 83.9905 94.3111 80.8642C94.2712 80.7822 94.2413 80.691 94.2113 80.5999C94.1913 80.5088 94.1714 80.4176 94.1614 80.3174C93.4426 72.0595 92.2746 64.2757 90.5774 57.0387C88.8803 49.8017 86.664 43.1207 83.8388 37.0869C81.0435 31.1077 77.6492 25.7575 73.586 21.109C69.5229 16.4697 64.8008 12.5413 59.33 9.40589C59.2102 9.34209 59.0904 9.25095 58.9906 9.1598C58.8908 9.06866 58.8009 8.95928 58.7211 8.84991L58.7111 8.83168C57.8325 7.54652 56.8941 6.49834 55.9258 5.68714C54.9574 4.87595 53.9391 4.29261 52.8809 3.92803C51.8526 3.57256 50.7744 3.41761 49.6264 3.45407C48.4783 3.49053 47.2703 3.7184 46.0025 4.13767C41.4701 5.51397 36.9177 6.85381 32.3854 8.21188C30.4287 8.91371 28.8314 9.67022 27.5934 10.4632C26.3655 11.2562 25.497 12.0856 24.9778 12.9515C24.5186 13.7262 24.3489 14.5739 24.4687 15.4853C24.5885 16.415 25.0078 17.4267 25.7266 18.5114L29.8397 24.5726C29.8496 24.5817 29.8596 24.5999 29.8596 24.609L29.9295 24.7184C29.9595 24.764 29.9794 24.8095 29.9894 24.846L29.9994 24.8642C30.4686 25.9489 30.9877 26.8694 31.5767 27.6168C32.1558 28.3551 32.7847 28.9111 33.4835 29.2666C34.1225 29.5856 34.8412 29.7405 35.6698 29.7041C36.5184 29.6676 37.4668 29.4397 38.545 29.0022C38.5849 28.984 38.6349 28.9658 38.6848 28.9476C38.7347 28.9293 38.7846 28.9111 38.8345 28.8929L40.5616 28.3825C41.0109 26.6963 41.4401 25.3108 41.7896 24.1897L41.7995 24.1715C42.089 23.2418 42.3486 22.5856 42.5183 22.1572C42.6281 21.8746 42.7679 21.8382 42.728 21.7835C42.698 21.747 42.5882 21.9293 42.2388 22.1481C41.5899 22.5674 40.5017 23.2601 38.6249 23.9528L37.7464 24.2718C37.2572 24.4541 36.7381 24.4267 36.2988 24.2535C35.8495 24.0804 35.4802 23.7522 35.2805 23.3056C35.0908 22.859 35.1108 22.3942 35.3005 21.984C35.4902 21.5739 35.8495 21.2366 36.3387 21.0543C36.6282 20.945 36.9277 20.8447 37.2172 20.7353C42.3386 18.8486 44.5449 18.0465 45.8727 19.8512C46.7212 20.9996 46.252 22.4944 45.4434 25.1103L45.4334 25.1468C45.2537 25.721 45.0541 26.3681 44.8444 27.0791L55.2868 23.8343L55.3268 23.8252C55.4166 23.7978 55.5065 23.7796 55.5963 23.7705C55.6961 23.7522 55.806 23.7522 55.9158 23.7522C56.4349 23.7614 56.9141 23.9528 57.2535 24.2718C57.5929 24.5908 57.8026 25.0192 57.7926 25.5022C57.7028 31.527 57.7527 37.3694 58.0721 42.8291C58.3916 48.2796 59.0006 53.3382 60.0289 57.7952C61.0172 62.07 62.3949 65.7705 64.3017 68.7054C66.1885 71.6494 68.6044 73.8004 71.6693 75.0035Z" fill="#C77DFF"/>
</g>
<defs>
<clipPath id="clip0">
<rect width="101" height="112" fill="white"/>
</clipPath>
</defs>
</svg>
