<svg width="100" height="100" viewBox="0 0 100 100" fill="none" xmlns="http://www.w3.org/2000/svg">
<g clip-path="url(#clip0)">
<path d="M11.4585 21.7384L11.7433 21.3089L4.7365 22.3364C3.59718 22.5048 2.50668 22.1764 1.66033 21.511C0.813975 20.8456 0.203624 19.8433 0.0490012 18.6642C-0.113759 17.4851 0.203624 16.3564 0.846527 15.4805C1.48943 14.6046 2.45786 13.9729 3.59718 13.8129L21.7694 11.1682L21.8182 11.1598C21.9321 11.1429 22.0379 11.1345 22.16 11.1345C23.2912 11.1008 24.3329 11.5388 25.0978 12.28C25.8709 13.0296 26.3674 14.074 26.4162 15.2531C26.6603 21.7047 26.8963 28.1647 27.0916 34.6164C27.1323 35.7955 26.7092 36.882 25.9849 37.6821C25.2606 38.4823 24.2515 38.996 23.104 39.0466H23.0633C21.924 39.0887 20.8742 38.6507 20.1011 37.9011C19.328 37.1599 18.8316 36.1071 18.7827 34.928C18.6769 32.0728 18.5874 29.2176 18.4816 26.3623C17.8794 27.2635 17.2853 28.2321 16.6913 29.3355C14.673 33.0498 13.2326 37.0252 12.3781 41.1017C11.5155 45.2202 11.2551 49.4399 11.6131 53.6175C11.9631 57.736 12.9071 61.7957 14.4452 65.6532C15.9344 69.3843 17.9933 72.9386 20.6138 76.1644H20.6219C21.5903 77.3604 22.5995 78.489 23.6411 79.5418C24.6991 80.6115 25.7977 81.6222 26.9289 82.5655C29.4598 84.6711 32.1372 86.423 34.9204 87.8127C37.7606 89.2277 40.6984 90.272 43.7013 90.9459L44.686 91.1648V99.9074L43.2131 99.621C39.3556 98.8714 35.5715 97.6164 31.9256 95.8646C28.3612 94.1464 24.9269 91.9481 21.7124 89.2698C20.3859 88.1664 19.1001 86.9789 17.8469 85.7071C16.6261 84.469 15.4299 83.1298 14.2661 81.698C11.0679 77.7647 8.56951 73.4524 6.75473 68.9211C4.87485 64.2298 3.73552 59.3195 3.32049 54.3586C2.89731 49.3304 3.20655 44.2432 4.24822 39.2824C5.27361 34.3805 7.00701 29.605 9.44841 25.1242C10.0913 23.8946 10.7668 22.7828 11.4585 21.7384ZM70.1825 96.6057C66.854 98.0628 63.4198 99.1072 59.953 99.7389L58.4963 100.008V91.2912L59.4972 91.0806C62.0363 90.55 64.551 89.7414 67.0005 88.6718C69.4094 87.619 71.745 86.2966 73.9829 84.7132L74.8374 84.1152L80.7782 90.2636L79.5819 91.148C76.6034 93.3547 73.4539 95.1739 70.1825 96.6057ZM96.7206 69.2411C95.3289 72.6522 93.5549 75.9117 91.4227 78.9522L90.5682 80.1735L84.6274 74.0251L85.2215 73.1407C86.7433 70.8667 88.021 68.4494 89.0545 65.9395C90.0881 63.4296 90.8693 60.8018 91.3901 58.1151L91.5936 57.0791H100L99.7479 58.5867C99.1375 62.2421 98.1284 65.8132 96.7206 69.2411ZM98.6574 36.9915C99.0399 38.4149 99.3573 39.8299 99.6096 41.2533L99.8862 42.7777H91.4634L91.2518 41.7586C91.0402 40.7395 90.7961 39.7372 90.5194 38.7602C90.2427 37.7664 89.9253 36.7809 89.5672 35.8039C88.9894 34.1868 88.3221 32.6034 87.5897 31.0621C86.8573 29.5292 86.0597 28.0637 85.1971 26.674L84.66 25.798L90.6252 19.6244L91.4715 20.9214C92.6434 22.7238 93.7258 24.6273 94.7105 26.6234C95.6952 28.6196 96.5741 30.6831 97.339 32.8055C97.8436 34.2037 98.2831 35.6018 98.6574 36.9915ZM72.6157 4.10175C75.1873 5.31458 77.6043 6.77167 79.8504 8.43932L81.0467 9.32368L75.0978 15.4805L74.2515 14.8825C72.5181 13.6697 70.6707 12.6084 68.7258 11.7157C66.8133 10.8397 64.8114 10.1407 62.7118 9.61004C61.7759 9.37421 60.783 9.17208 59.7495 9.01205C58.7567 8.85202 57.7557 8.74253 56.7629 8.67515C55.7293 8.60777 54.6958 8.5825 53.6623 8.60777C52.6369 8.63304 51.5789 8.70884 50.4885 8.83518H50.4803C49.341 8.96151 48.2586 8.59935 47.4286 7.90871C46.5985 7.21806 46.0207 6.19894 45.8986 5.0198C45.7765 3.84065 46.1265 2.72046 46.7938 1.86137C47.4611 1.00228 48.4458 0.404283 49.5851 0.277946C50.8791 0.134764 52.1812 0.0421164 53.4832 0.00842656C54.7853 -0.0252633 56.0467 4.08757e-06 57.2837 0.0842288C58.537 0.168454 59.7658 0.303213 60.9621 0.488507C62.1828 0.682224 63.4198 0.934898 64.6649 1.24653C67.4562 1.95402 70.1092 2.91418 72.6157 4.10175Z" fill="#C77DFF"/>
</g>
<defs>
<clipPath id="clip0">
<rect width="100" height="100" fill="white"/>
</clipPath>
</defs>
</svg>
