<svg width="50" height="50" viewBox="0 0 50 50" fill="none" xmlns="http://www.w3.org/2000/svg">
<g clip-path="url(#clip0)">
<path fill-rule="evenodd" clip-rule="evenodd" d="M25.0075 0C38.8089 0 50.015 11.1911 50.015 25.0075C50.015 38.8089 38.8239 50.015 25.0075 50.015C11.2061 50.015 0 38.8239 0 25.0075C0 11.2061 11.1911 0 25.0075 0ZM21.7822 20.042H26.9127V22.6673H26.9877C27.7078 21.3771 29.4479 20.042 32.0582 20.042C37.4737 20.042 38.4788 23.4173 38.4788 27.7978V36.7387H33.1233V28.8179C33.1233 26.9277 33.0783 24.4975 30.333 24.4975C27.5428 24.4975 27.1227 26.5527 27.1227 28.6829V36.7387H21.7672V20.042H21.7822ZM18.0768 15.4065C18.0768 16.9367 16.8317 18.1968 15.2865 18.1968C13.7564 18.1968 12.4963 16.9517 12.4963 15.4065C12.4963 13.8764 13.7414 12.6163 15.2865 12.6163C16.8167 12.6163 18.0768 13.8614 18.0768 15.4065ZM12.5113 20.042H18.0768V36.7387H12.5113V20.042Z" fill="#70BF2C"/>
</g>
<defs>
<clipPath id="clip0">
<rect width="50" height="50" fill="white"/>
</clipPath>
</defs>
</svg>
