<svg width="100" height="100" viewBox="0 0 100 100" fill="none" xmlns="http://www.w3.org/2000/svg">
<path d="M11.6987 27.8868L50 5.7735L88.3013 27.8868V72.1133L50 94.2265L11.6987 72.1133V27.8868Z" fill="#7B2CBF" stroke="#5A189A" stroke-width="10"/>
<path d="M30.4566 53.8502L26.3083 61.385L27.2725 63.5636L33.0342 66.8902L34.974 65.9832L39.0984 58.8395L38.3071 56.3579L32.8483 53.2063L30.4566 53.8502Z" fill="#5A189A"/>
<path opacity="0.2" d="M31.2741 54.5334C31.2741 54.5334 28.3881 61.985 26.9743 61.9809L26.3045 61.3917L30.3651 54.0086L31.2741 54.5334Z" fill="white"/>
<path d="M47.485 62.8716L49.4009 62.3558L55.1644 65.6833L55.6756 67.6005C55.6756 67.6005 54.6478 72.8832 51.7675 75.0693L49.6124 75.6495L43.8489 72.322L43.1862 70.3174L47.485 62.8716Z" fill="#5A189A"/>
<path opacity="0.2" d="M48.6731 63.9625C48.6731 63.9625 46.8153 69.983 44.5496 71.1046L43.1845 70.3164L47.4834 62.8707L48.6731 63.9625Z" fill="white"/>
<path d="M37.7386 61.0959L45.9408 65.8314C46.583 66.2022 46.7698 67.0803 46.3572 67.795C45.9455 68.5081 45.0907 68.787 44.4485 68.4163L36.2463 63.6807C35.5498 63.2786 35.3994 62.2917 35.9265 61.5726C36.3704 60.9596 37.1508 60.7565 37.7386 61.0959Z" fill="#5A189A"/>
<path d="M49.8625 11.2381L16.658 30.75L83.305 69.2286L83.6375 30.7381L49.8625 11.2381Z" fill="#9D4EDD"/>
<line x1="64.5" y1="24.8853" x2="56.7059" y2="38.385" stroke="#5A189A" stroke-width="2" stroke-linecap="square"/>
<line x1="57.3038" y1="25.3494" x2="67.6962" y2="31.3494" stroke="#5A189A" stroke-width="2" stroke-linecap="square"/>
<path d="M56.5 38.7417C46.9737 33.2417 42.5767 40.8575 42.5767 40.8575C42.5767 40.8575 49.6598 41.6975 53.51 43.9205C57.3603 46.1434 61.6292 51.8575 61.6292 51.8575C61.6292 51.8575 66.0263 44.2417 56.5 38.7417Z" fill="#7B46AE"/>
</svg>
