<svg width="250" height="250" viewBox="0 0 250 250" fill="none" xmlns="http://www.w3.org/2000/svg">
<path d="M21.7468 65.3867L125 5.7735L228.253 65.3867V184.613L125 244.227L21.7468 184.613V65.3867Z" fill="#7B2CBF" stroke="#5A189A" stroke-width="10"/>
<path d="M110.438 73.4375V104.688L135.438 115.625L160.438 104.688V73.4375" stroke="#C77DFF" stroke-width="2" stroke-miterlimit="10" stroke-linecap="round" stroke-linejoin="round"/>
<path d="M110.438 73.4375L135.438 84.375L160.438 73.4375" stroke="#C77DFF" stroke-width="2" stroke-miterlimit="10" stroke-linecap="round" stroke-linejoin="round"/>
<path d="M122.938 67.9688L147.938 79.0031V89.0625" stroke="#C77DFF" stroke-width="2" stroke-miterlimit="10" stroke-linecap="round" stroke-linejoin="round"/>
<path d="M110.438 73.4375L135.438 62.5L160.438 73.4375" stroke="#C77DFF" stroke-width="2" stroke-miterlimit="10" stroke-linecap="round" stroke-linejoin="round"/>
<path d="M91.6875 92.6625L91.8344 92.7313L104.188 98.4375" stroke="#C77DFF" stroke-width="2" stroke-miterlimit="10" stroke-linecap="round" stroke-linejoin="round"/>
<path d="M93.8936 82.7437L104.187 87.5" stroke="#C77DFF" stroke-width="2" stroke-miterlimit="10" stroke-linecap="round" stroke-linejoin="round"/>
<path d="M95.9531 72.7594L104.187 76.5625" stroke="#C77DFF" stroke-width="2" stroke-miterlimit="10" stroke-linecap="round" stroke-linejoin="round"/>
<path d="M135.438 84.375V115.625" stroke="#C77DFF" stroke-width="2" stroke-miterlimit="10" stroke-linecap="round" stroke-linejoin="round"/>
<path d="M93.7734 161H92.332L82.5234 146.398V161H81.0703V143.938H82.5234L92.3438 158.551V143.938H93.7734V161ZM105.938 159.395C105.094 160.621 103.746 161.234 101.895 161.234C100.543 161.234 99.5156 160.844 98.8125 160.062C98.1094 159.273 97.75 158.109 97.7344 156.57V148.32H99.1289V156.395C99.1289 158.809 100.105 160.016 102.059 160.016C104.09 160.016 105.375 159.176 105.914 157.496V148.32H107.32V161H105.961L105.938 159.395ZM113.156 145.074V148.32H115.781V149.469H113.156V157.918C113.156 158.621 113.281 159.145 113.531 159.488C113.789 159.832 114.215 160.004 114.809 160.004C115.043 160.004 115.422 159.965 115.945 159.887L116.004 161.035C115.637 161.168 115.137 161.234 114.504 161.234C113.543 161.234 112.844 160.957 112.406 160.402C111.969 159.84 111.75 159.016 111.75 157.93V149.469H109.418V148.32H111.75V145.074H113.156ZM124.547 149.516C124.25 149.461 123.934 149.434 123.598 149.434C122.723 149.434 121.98 149.68 121.371 150.172C120.77 150.656 120.34 151.363 120.082 152.293V161H118.688V148.32H120.059L120.082 150.336C120.824 148.836 122.016 148.086 123.656 148.086C124.047 148.086 124.355 148.137 124.582 148.238L124.547 149.516ZM128.344 161H126.938V148.32H128.344V161ZM126.691 144.652C126.691 144.387 126.777 144.164 126.949 143.984C127.121 143.797 127.355 143.703 127.652 143.703C127.949 143.703 128.184 143.797 128.355 143.984C128.535 144.164 128.625 144.387 128.625 144.652C128.625 144.918 128.535 145.141 128.355 145.32C128.184 145.5 127.949 145.59 127.652 145.59C127.355 145.59 127.121 145.5 126.949 145.32C126.777 145.141 126.691 144.918 126.691 144.652ZM134.344 145.074V148.32H136.969V149.469H134.344V157.918C134.344 158.621 134.469 159.145 134.719 159.488C134.977 159.832 135.402 160.004 135.996 160.004C136.23 160.004 136.609 159.965 137.133 159.887L137.191 161.035C136.824 161.168 136.324 161.234 135.691 161.234C134.73 161.234 134.031 160.957 133.594 160.402C133.156 159.84 132.938 159.016 132.938 157.93V149.469H130.605V148.32H132.938V145.074H134.344ZM141.445 161H140.039V148.32H141.445V161ZM139.793 144.652C139.793 144.387 139.879 144.164 140.051 143.984C140.223 143.797 140.457 143.703 140.754 143.703C141.051 143.703 141.285 143.797 141.457 143.984C141.637 144.164 141.727 144.387 141.727 144.652C141.727 144.918 141.637 145.141 141.457 145.32C141.285 145.5 141.051 145.59 140.754 145.59C140.457 145.59 140.223 145.5 140.051 145.32C139.879 145.141 139.793 144.918 139.793 144.652ZM144.492 154.473C144.492 153.254 144.727 152.156 145.195 151.18C145.672 150.203 146.34 149.445 147.199 148.906C148.066 148.359 149.047 148.086 150.141 148.086C151.828 148.086 153.195 148.68 154.242 149.867C155.289 151.047 155.812 152.613 155.812 154.566V154.859C155.812 156.086 155.574 157.191 155.098 158.176C154.629 159.152 153.965 159.906 153.105 160.438C152.246 160.969 151.266 161.234 150.164 161.234C148.484 161.234 147.117 160.645 146.062 159.465C145.016 158.277 144.492 156.707 144.492 154.754V154.473ZM145.898 154.859C145.898 156.375 146.289 157.621 147.07 158.598C147.859 159.566 148.891 160.051 150.164 160.051C151.43 160.051 152.453 159.566 153.234 158.598C154.023 157.621 154.418 156.336 154.418 154.742V154.473C154.418 153.504 154.238 152.617 153.879 151.812C153.52 151.008 153.016 150.387 152.367 149.949C151.719 149.504 150.977 149.281 150.141 149.281C148.891 149.281 147.871 149.773 147.082 150.758C146.293 151.734 145.898 153.016 145.898 154.602V154.859ZM160.055 148.32L160.102 150.488C160.578 149.707 161.172 149.113 161.883 148.707C162.594 148.293 163.379 148.086 164.238 148.086C165.598 148.086 166.609 148.469 167.273 149.234C167.938 150 168.273 151.148 168.281 152.68V161H166.887V152.668C166.879 151.535 166.637 150.691 166.16 150.137C165.691 149.582 164.938 149.305 163.898 149.305C163.031 149.305 162.262 149.578 161.59 150.125C160.926 150.664 160.434 151.395 160.113 152.316V161H158.719V148.32H160.055ZM82.4297 182.051V189H80.9883V171.938H86.8008C88.5742 171.938 89.9727 172.391 90.9961 173.297C92.0273 174.203 92.543 175.449 92.543 177.035C92.543 178.637 92.0469 179.875 91.0547 180.75C90.0703 181.617 88.6406 182.051 86.7656 182.051H82.4297ZM82.4297 180.832H86.8008C88.1992 180.832 89.2656 180.5 90 179.836C90.7344 179.172 91.1016 178.246 91.1016 177.059C91.1016 175.879 90.7344 174.941 90 174.246C89.2734 173.543 88.2383 173.184 86.8945 173.168H82.4297V180.832ZM97.0195 189H95.6133V171H97.0195V189ZM108.844 189C108.703 188.602 108.613 188.012 108.574 187.23C108.082 187.871 107.453 188.367 106.688 188.719C105.93 189.062 105.125 189.234 104.273 189.234C103.055 189.234 102.066 188.895 101.309 188.215C100.559 187.535 100.184 186.676 100.184 185.637C100.184 184.402 100.695 183.426 101.719 182.707C102.75 181.988 104.184 181.629 106.02 181.629H108.562V180.188C108.562 179.281 108.281 178.57 107.719 178.055C107.164 177.531 106.352 177.27 105.281 177.27C104.305 177.27 103.496 177.52 102.855 178.02C102.215 178.52 101.895 179.121 101.895 179.824L100.488 179.812C100.488 178.805 100.957 177.934 101.895 177.199C102.832 176.457 103.984 176.086 105.352 176.086C106.766 176.086 107.879 176.441 108.691 177.152C109.512 177.855 109.934 178.84 109.957 180.105V186.105C109.957 187.332 110.086 188.25 110.344 188.859V189H108.844ZM104.438 187.992C105.375 187.992 106.211 187.766 106.945 187.312C107.688 186.859 108.227 186.254 108.562 185.496V182.707H106.055C104.656 182.723 103.562 182.98 102.773 183.48C101.984 183.973 101.59 184.652 101.59 185.52C101.59 186.23 101.852 186.82 102.375 187.289C102.906 187.758 103.594 187.992 104.438 187.992ZM115.043 176.32L115.09 178.488C115.566 177.707 116.16 177.113 116.871 176.707C117.582 176.293 118.367 176.086 119.227 176.086C120.586 176.086 121.598 176.469 122.262 177.234C122.926 178 123.262 179.148 123.27 180.68V189H121.875V180.668C121.867 179.535 121.625 178.691 121.148 178.137C120.68 177.582 119.926 177.305 118.887 177.305C118.02 177.305 117.25 177.578 116.578 178.125C115.914 178.664 115.422 179.395 115.102 180.316V189H113.707V176.32H115.043ZM128.238 176.32L128.285 178.488C128.762 177.707 129.355 177.113 130.066 176.707C130.777 176.293 131.562 176.086 132.422 176.086C133.781 176.086 134.793 176.469 135.457 177.234C136.121 178 136.457 179.148 136.465 180.68V189H135.07V180.668C135.062 179.535 134.82 178.691 134.344 178.137C133.875 177.582 133.121 177.305 132.082 177.305C131.215 177.305 130.445 177.578 129.773 178.125C129.109 178.664 128.617 179.395 128.297 180.316V189H126.902V176.32H128.238ZM141.668 189H140.262V176.32H141.668V189ZM140.016 172.652C140.016 172.387 140.102 172.164 140.273 171.984C140.445 171.797 140.68 171.703 140.977 171.703C141.273 171.703 141.508 171.797 141.68 171.984C141.859 172.164 141.949 172.387 141.949 172.652C141.949 172.918 141.859 173.141 141.68 173.32C141.508 173.5 141.273 173.59 140.977 173.59C140.68 173.59 140.445 173.5 140.273 173.32C140.102 173.141 140.016 172.918 140.016 172.652ZM146.824 176.32L146.871 178.488C147.348 177.707 147.941 177.113 148.652 176.707C149.363 176.293 150.148 176.086 151.008 176.086C152.367 176.086 153.379 176.469 154.043 177.234C154.707 178 155.043 179.148 155.051 180.68V189H153.656V180.668C153.648 179.535 153.406 178.691 152.93 178.137C152.461 177.582 151.707 177.305 150.668 177.305C149.801 177.305 149.031 177.578 148.359 178.125C147.695 178.664 147.203 179.395 146.883 180.316V189H145.488V176.32H146.824ZM158.121 182.543C158.121 180.559 158.559 178.988 159.434 177.832C160.316 176.668 161.512 176.086 163.02 176.086C164.746 176.086 166.059 176.773 166.957 178.148L167.027 176.32H168.34V188.742C168.34 190.375 167.883 191.668 166.969 192.621C166.055 193.574 164.816 194.051 163.254 194.051C162.371 194.051 161.527 193.852 160.723 193.453C159.926 193.062 159.297 192.539 158.836 191.883L159.621 191.039C160.613 192.258 161.793 192.867 163.16 192.867C164.332 192.867 165.246 192.52 165.902 191.824C166.559 191.137 166.898 190.18 166.922 188.953V187.359C166.023 188.609 164.715 189.234 162.996 189.234C161.527 189.234 160.348 188.648 159.457 187.477C158.566 186.305 158.121 184.723 158.121 182.73V182.543ZM159.539 182.789C159.539 184.406 159.863 185.684 160.512 186.621C161.16 187.551 162.074 188.016 163.254 188.016C164.98 188.016 166.203 187.242 166.922 185.695V179.801C166.594 178.988 166.121 178.371 165.504 177.949C164.887 177.52 164.145 177.305 163.277 177.305C162.098 177.305 161.18 177.77 160.523 178.699C159.867 179.621 159.539 180.984 159.539 182.789Z" fill="#E5E5E5"/>
</svg>
